<?xml version="1.0" encoding="UTF-8"?>
<svg id="Camada_2" data-name="Camada 2" xmlns="http://www.w3.org/2000/svg" viewBox="0 0 407.25 69.48">
  <defs>
    <style>
      .cls-1 {
        fill: #fff;
        stroke-width: 0px;
      }
    </style>
  </defs>
  <g id="Camada_1-2" data-name="Camada 1">
    <g>
      <path class="cls-1" d="M125.92,68.19L104.31.09h18.65l13.29,50.6L149.84.09h18.75l-22.19,68.1h-20.47Z"/>
      <path class="cls-1" d="M230.78,68.19h-18.36l-4.4-12.43h-23.53l-4.49,12.43h-18.17L187.36,0h17.98l25.44,68.19ZM196.35,19.13l-7.84,23.82h15.49l-7.65-23.82Z"/>
      <path class="cls-1" d="M295.19.09v40.84c0,9.75-2.5,16.94-7.51,21.57-5.01,4.62-12.45,6.93-22.33,6.93s-17.52-2.31-22.34-6.93c-4.81-4.63-7.22-11.81-7.22-21.57V.09h17.88v41.23c0,4.4.91,7.75,2.73,10.04s4.93,3.44,9.33,3.44c7.71,0,11.57-4.49,11.57-13.48V.09h17.88Z"/>
      <path class="cls-1" d="M356.73,68.19h-49.64V.09h17.88v52.8h31.76v15.3Z"/>
      <path class="cls-1" d="M407.25,15.21h-20.18v52.99h-17.98V15.21h-20.18V.09h58.34v15.11Z"/>
    </g>
    <g>
      <path class="cls-1" d="M78.95.05c-12.59.16-25.19.07-37.79.07v.03C28.44.14,15.72.21,3,.09.47.06-.31.83.1,3.24c.72,4.25,1.04,8.6,2.06,12.77,5.41,22.09,16.87,40.05,36.41,52.36,1.59,1,2.91,1.74,4.96.36,23.22-15.59,35.9-37.37,38.71-65.08.27-2.71-.4-3.63-3.31-3.6ZM66.31,16.37c-3.6,11.38-11.54,23.51-11.54,23.51s-3.03,4.63-11.23,11.96c-.32.29-1.08.94-2.09.94-.66,0-1.32-.29-2.09-.9-11.72-9.27-19.57-21.01-23.1-35.59-.53-2.18.1-2.81,2.29-2.78,7.65.1,15.3.04,22.95.04,11.82.16,20.25.23,22.58.07.39-.03,1.63-.12,2.19.6.5.65.22,1.65.06,2.16Z"/>
      <path class="cls-1" d="M54.93,23.63c-.73,1.26-8.05,15.06-12.26,18.64-.33.28-.92.74-1.68.73-.89-.02-1.55-.67-1.86-.98-4.04-4.13-9.97-11.53-12.58-18.79-.59-1.63-.62-2.67,1.81-2.62,2.53.05,21.42.23,24.75.09.48-.02,1.78-.09,2.23.64.43.68-.09,1.74-.42,2.3Z"/>
    </g>
  </g>
</svg>